<svg xmlns="http://www.w3.org/2000/svg" fill-rule="evenodd" clip-rule="evenodd" image-rendering="optimizeQuality" shape-rendering="geometricPrecision" text-rendering="geometricPrecision" viewBox="0 0 6.827 6.827" id="Degree"><defs><clipPath id="a"><path d="M3.413 0a3.413 3.413 0 1 1 0 6.827 3.413 3.413 0 0 1 0-6.827z" fill="#000000" class="color000000 svgShape"></path></clipPath></defs><g fill="#000000" class="color000000 svgShape"><path fill="#03a8e3" d="M3.413 0a3.413 3.413 0 1 1 0 6.827 3.413 3.413 0 0 1 0-6.827z" class="color616161 svgShape"></path><g clip-path="url(#a)" fill="#000000" class="color000000 svgShape"><g fill="#000000" class="color000000 svgShape"><path fill="#4c4c4c" d="m3.843 1.484 3.778 3.787.004.005-3.778-3.787z" class="color4c4c4c svgShape"></path><path fill="#4c4c4c" d="m3.847 1.49 3.778 3.786.002.002v.001l.001.002.001.001v.001l.001.002.001.001L3.853 1.5v-.002h-.001v-.002l-.002-.002-.001-.002-.001-.001z" class="color4c4c4c svgShape"></path><path fill="#4c4c4c" d="M3.853 1.5l3.778 3.786.177.316L4.03 1.815zM4.418 1.79l3.778 3.786.004.005.003.005.003.005.002.006.002.006.001.006-3.778-3.786-.001-.006-.002-.006-.002-.006-.003-.006-.003-.005z" class="color4c4c4c svgShape"></path><path fill="#4c4c4c" d="m4.433 1.823 3.778 3.786.001.01.001.01.001.01.001.01.001.01v.012l.001.011v.012l.001.012v.012l.001.012V5.767l.001.013V5.972l.001.01-3.778-3.786V1.994l-.001-.013V1.944L4.44 1.93V1.92l-.001-.012v-.011l-.001-.012v-.01l-.002-.011v-.01l-.002-.011v-.01z" class="color4c4c4c svgShape"></path><path fill="#4c4c4c" d="M4.785 2.328l3.778 3.786.004.005.003.005.003.005.002.006.002.005.001.006V6.164l-.001.007-.002.006L4.797 2.39l.002-.006.001-.006V2.36L4.8 2.354l-.002-.006-.002-.005-.003-.006-.003-.005zM4.797 2.39l3.778 3.787v.001l-.001.002v.001l-.002.002v.001l-.001.001v.002l-.002.001-3.777-3.786V2.4l.001-.002v-.001l.002-.002v-.003l.001-.001z" class="color4c4c4c svgShape"></path><path fill="#4c4c4c" d="m4.792 2.402 3.777 3.786-.159.324-3.778-3.786z" class="color4c4c4c svgShape"></path><path fill="#4c4c4c" d="M4.893 2.962 8.67 6.748l-.033.012L4.86 2.974z" class="color4c4c4c svgShape"></path><path fill="#4c4c4c" d="M4.86 2.974 8.636 6.76l.004.005.004.005.003.006.002.005.002.006.001.006V6.811l-.001.006-.002.006-.002.005-.003.006-.003.005-.004.005-.005.004-3.778-3.786.005-.004.004-.005.003-.005.003-.006.002-.005.002-.006.001-.006V3.007L4.874 3l-.002-.006-.002-.006-.003-.005-.003-.005z" class="color4c4c4c svgShape"></path><path fill="#4c4c4c" d="M4.855 3.062l3.778 3.786v.002H8.63l-.001.002h-.002l-.001.002h-.001l-.002.001-.001.001L4.845 3.07h.001l.002-.002h.001l.001-.002h.002l.001-.002h.001zM3.09 1.494L6.866 5.28 3.09 1.494zM4.554 3.282L8.332 7.07l.085.325L4.64 3.608z" class="color4c4c4c svgShape"></path><path fill="#4c4c4c" d="m4.64 3.608 3.777 3.786-.06.016L4.58 3.624z" class="color4c4c4c svgShape"></path><path fill="#4c4c4c" d="M4.643 3.622 8.42 7.408l.002.005v.006l-.002.006-.004.007-.005.008-.006.007-.007.006-.007.006-.007.005-.006.004-.006.002-3.778-3.786.006-.002.006-.004.007-.005.007-.006.007-.007.006-.007.005-.007.004-.007.002-.006v-.006z" class="color4c4c4c svgShape"></path><path fill="#4c4c4c" d="M4.595 3.684L8.373 7.47l-.01.003-.009.002-.01.002-.01.002-.01.002-.011.002-.012.002-.011.002-.012.002-.012.002-.012.002-.012.002-.013.002-.012.001-.013.002-.012.002-.013.001-.013.002-.012.001-.013.002-.012.001-.013.002-.012.001-.012.002-.012.001-.012.002-.011.001-.011.002-.011.001-.011.002-.01.001-.01.002-3.778-3.787.01-.001.01-.002.01-.001.012-.002.01-.001.012-.001.012-.002.012-.001.012-.002.012-.001.013-.002.012-.001.013-.002.013-.002.012-.001.013-.002.012-.001.013-.002.013-.002.012-.002.012-.001.012-.002.012-.002.012-.002.011-.002.012-.002.01-.002.011-.002.01-.002.01-.002.01-.003zM4.226 3.74l3.778 3.786-.063.271-3.778-3.786zM2.14 2.385l3.777 3.787L2.14 2.386z" class="color4c4c4c svgShape"></path><path fill="#4c4c4c" d="M4.163 4.01l3.778 3.787.35 1.21-3.779-3.785zM4.47 5.299l3.778 3.786-.004.001h-.005l-.004.001H8.22l-.004-.001-.004-.001-.003-.002-.004-.001-.003-.002-.004-.002-.003-.002-.003-.003-.003-.002L4.41 5.285l.003.002.003.003.003.002.004.002.003.002.004.001.004.001.003.001.004.001h.004l.004.001H4.462l.004-.001zM2.885 4.996l3.778 3.786-.37.289-3.777-3.786zM2.668 3.71l3.778 3.785-.335-.035-3.777-3.786z" class="color4c4c4c svgShape"></path><path fill="#4c4c4c" d="M2.334 3.674 6.11 7.46 2.333 3.674z" class="color4c4c4c svgShape"></path><path fill="#4c4c4c" d="M2.333 3.674L6.111 7.46h-.006l-.006-.002-.006-.003-.005-.002-.006-.003-.004-.004-.005-.004-3.778-3.786.005.004.004.003.006.003.005.003.006.002.006.002zM2.357 3.24l3.778 3.786-.28-.186-3.777-3.787zM3.17 5.409l3.778 3.786v.004l-.002.003v.004l-.002.004-.002.003-.002.004-.002.003-.003.003-.002.003-.003.003-.003.002-.003.003-.003.002-.004.002-.003.002-.004.002-3.778-3.787.004-.001.003-.002.004-.002.003-.003.003-.002.003-.003.003-.002.003-.003.002-.004.002-.003.002-.003.002-.004.001-.003.002-.004v-.004z" class="color4c4c4c svgShape"></path><path fill="#4c4c4c" d="M3.132 5.455L6.91 9.242l-.006.002-.007.001h-.024l-.006-.002-.005-.002-.006-.003-.005-.003-.004-.004-3.778-3.786.004.004.006.003.005.002.006.003.005.001.006.001h.019l.006-.002zM2.078 3.053L5.856 6.84 2.077 3.054zM2.516 5.285L6.294 9.07l-.003.002-.003.003-.004.002-.003.002-.004.002-.003.001-.004.002h-.004l-.004.002h-.024l-.004-.002L2.456 5.3h.004l.004.002h.02l.004-.002h.004l.004-.002.003-.001.004-.002.003-.002.004-.002.003-.003z" class="color4c4c4c svgShape"></path><path fill="#4c4c4c" d="M2.456 5.299l3.778 3.786-.006-.002-.006-.003-.005-.003-.005-.003-3.778-3.787.005.004.005.003.006.003zM2.078 3.054L5.855 6.84l-.005-.004-.004-.004-3.778-3.786.004.004z" class="color4c4c4c svgShape"></path><path fill="#4c4c4c" d="M3.463 4.395 7.24 8.18l-.293 1.014L3.17 5.409z" class="color4c4c4c svgShape"></path><path fill="#4c4c4c" d="M4.41 5.285L8.188 9.07l-.37-.289L4.04 4.996zM4.04 4.996l3.778 3.786-.165.424L3.875 5.42z" class="color4c4c4c svgShape"></path><path fill="#4c4c4c" d="m3.875 5.42 3.778 3.786-.003.006-.003.005-.004.005-.004.005-.004.004-.005.004-.005.003-.005.003-.006.002-.006.001-.006.001H7.584l-.006-.001-.006-.002-3.778-3.787.006.002.006.002h.024l.006-.002.006-.003.005-.002.005-.003.005-.004.004-.004.004-.005.004-.005.003-.005z" class="color4c4c4c svgShape"></path><path fill="#4c4c4c" d="M3.794 5.455l3.778 3.787-.004-.002-.004-.002-.003-.002-.004-.002-.003-.003-.003-.002-3.778-3.787.003.003.003.002.004.003.003.002.004.002zM4.512 5.221L8.29 9.008l.002.006v.024l-.002.006-.002.006-.003.005-.003.005-.004.005-.004.005-.004.004-.005.003-.006.003-.005.003-.006.002L4.47 5.3l.006-.002.005-.003.006-.003.005-.004.004-.004.004-.004.004-.005.003-.005.003-.005.002-.006.001-.006.002-.006v-.012l-.001-.006zM4.845 3.07l3.778 3.786-.291.213-3.778-3.787z" class="color4c4c4c svgShape"></path><path fill="#4c4c4c" d="M3.76 1.475a.063.063 0 0 1 .093.025l.177.315.333-.045a.063.063 0 0 1 .07.053c.014.097.007.268.01.373l.316.115a.062.062 0 0 1 .033.09l-.16.325.26.236-.033.012a.063.063 0 0 1-.014.096l-.291.212.085.326-.06.016c.124-.033.042.053.016.06-.095.025-.265.04-.37.055l-.062.272.35 1.21a.063.063 0 0 1-.103.064l-.37-.29-.165.425a.063.063 0 0 1-.12-.011l-.292-1.014-.293 1.014a.062.062 0 0 1-.12.01l-.165-.423-.37.289a.062.062 0 0 1-.102-.063l.343-1.19-.088-.323-.334-.035a.063.063 0 0 1-.055-.078l.078-.356-.28-.187a.062.062 0 0 1-.01-.094L2.3 2.68l-.16-.296a.063.063 0 0 1 .035-.089l.335-.137-.005-.336c-.002 0 .028-.063.06-.064l.013.001.36.034.151-.3a.063.063 0 0 1 .094-.021l.303.197.274-.195z" class="color4c4c4c svgShape"></path></g></g><path fill="none" d="M3.413 0a3.413 3.413 0 1 1 0 6.827 3.413 3.413 0 0 1 0-6.827z"></path><path fill="#feffff" fill-rule="nonzero" d="m3.437 1.624.274-.195a.063.063 0 0 1 .093.024l.176.316.333-.046a.063.063 0 0 1 .071.066l.01.36.316.115a.062.062 0 0 1 .032.092l-.159.323.227.249-.046.042.046-.042a.063.063 0 0 1-.014.096l-.291.212.085.325-.06.016.06-.016a.062.062 0 0 1-.054.079l-.36.053-.075.327-.061-.013.06.014a.063.063 0 0 1-.085.043l-.342-.12-.219.256-.047-.041.047.04a.063.063 0 0 1-.096 0l-.247-.265-.312.124a.062.062 0 0 1-.085-.047l-.096-.348-.334-.036.006-.062-.006.063a.063.063 0 0 1-.054-.079l.078-.355-.28-.187a.062.062 0 0 1-.01-.095l.233-.278-.161-.295.055-.03-.055.03a.063.063 0 0 1 .036-.09l.334-.136-.005-.337a.063.063 0 0 1 .074-.062l.36.034.151-.3.056.028-.056-.028a.063.063 0 0 1 .094-.022l.303.198zm.29-.054-.248.177a.063.063 0 0 1-.075.005l-.284-.186-.137.272a.063.063 0 0 1-.064.038l.006-.062-.006.062-.338-.032.004.304a.063.063 0 0 1-.038.064l-.314.129.145.266a.063.063 0 0 1-.004.075l-.219.26.253.169c.024.013.037.04.03.068l-.072.332.303.032c.027 0 .05.019.058.046l-.06.016.06-.016.09.327.282-.112a.063.063 0 0 1 .074.013l-.045.043.045-.042.232.248.198-.231a.063.063 0 0 1 .071-.022l.32.112.07-.297a.063.063 0 0 1 .052-.052l.009.061-.009-.061.336-.05-.078-.295a.063.063 0 0 1 .023-.07l.036.05-.036-.05.274-.2-.204-.224a.063.063 0 0 1-.015-.074l.15-.305-.286-.104a.063.063 0 0 1-.046-.058l.063-.002-.063.001-.009-.339-.301.042a.063.063 0 0 1-.068-.031l.055-.03-.055.03-.166-.297z" class="colorfffffe svgShape"></path><path fill="#feffff" fill-rule="nonzero" d="M3.413 2.067a.748.748 0 0 1 .75.75.748.748 0 0 1-.75.75.748.748 0 0 1-.75-.75.748.748 0 0 1 .75-.75zm.442.308a.623.623 0 0 0-.884 0 .623.623 0 0 0 0 .885.623.623 0 0 0 .884 0 .623.623 0 0 0 0-.885zM4.11 3.949a.062.062 0 0 0-.12.034l.3 1.042-.289-.225-.038.049.039-.05a.063.063 0 0 0-.098.031l-.128.327-.29-1.003a.062.062 0 0 0-.095-.034.062.062 0 0 0-.054.045l-.286.992-.128-.327a.062.062 0 0 0-.098-.03l.039.049-.039-.05-.288.226.294-1.022a.062.062 0 0 0-.12-.034l-.347 1.206a.063.063 0 0 0 .102.063l.37-.288.165.424a.063.063 0 0 0 .12-.012l.292-1.014.293 1.014a.062.062 0 0 0 .12.012l.165-.424.37.288a.062.062 0 0 0 .102-.063L4.109 3.95zm-.743.239.025-.007.064.018a.062.062 0 0 0 0-.036l-.064.018-.027-.008c0 .005 0 .01.002.015z" class="colorfffffe svgShape"></path></g></svg>