<svg xmlns="http://www.w3.org/2000/svg" fill-rule="evenodd" clip-rule="evenodd" image-rendering="optimizeQuality" shape-rendering="geometricPrecision" text-rendering="geometricPrecision" viewBox="0 0 6.827 6.827" id="Degree"><circle cx="3.413" cy="3.413" r="3.413" fill="#ffbf66" class="colorffa000 svgShape"></circle><path fill="#fffffe" d="m2.557 3.724-.003-.009-.434-.046.1-.46-.364-.243.303-.36-.209-.385.436-.179-.007-.437.47.044.197-.39.394.257.357-.254.23.412.433-.06.012.471.412.149-.208.423.295.323-.38.278.11.423-.416.061a.178.178 0 0 1 .005.013l.364 1.262.03.102a.176.176 0 0 1-.121.218.181.181 0 0 1-.162-.034l-.298-.233-.093.238-.04.1a.176.176 0 0 1-.227.1.18.18 0 0 1-.107-.122l-.223-.772-.222.772a.18.18 0 0 1-.107.122.176.176 0 0 1-.228-.1l-.038-.099-.094-.24-.298.234a.181.181 0 0 1-.162.034.176.176 0 0 1-.12-.218l.029-.102.358-1.24a.175.175 0 0 1 .026-.053zm.342-1.434a.725.725 0 0 0 0 1.03.725.725 0 0 0 1.029 0 .725.725 0 0 0 0-1.03.725.725 0 0 0-1.029 0z" class="colorfffffe svgShape"></path><path fill="#925909" d="M4.192 3.802 4.58 5.15a.07.07 0 0 1-.113.07l-.411-.321-.185.471a.07.07 0 0 1-.133-.013L3.413 4.23l-.325 1.127a.07.07 0 0 1-.133.013l-.184-.471-.41.32a.07.07 0 0 1-.115-.07l.382-1.323.005-.018a.07.07 0 1 1 .133.038l-.015.052.326-.129.249.266.002-.009a.07.07 0 0 1 .06-.05.07.07 0 0 1 .107.038l.002.006.206-.239.377.132-.026-.089a.07.07 0 0 1 .133-.038l.005.017z" class="color925f09 svgShape"></path><path fill="#925909" d="M2.824 2.215a.832.832 0 0 1 1.18 0 .832.832 0 0 1 0 1.18.832.832 0 0 1-1.18 0 .832.832 0 0 1 0-1.18zm.58-.596-.317-.206-.153.303a.07.07 0 0 1-.07.042l-.376-.036.005.338a.07.07 0 0 1-.043.072l-.35.143.162.296a.07.07 0 0 1-.005.083l-.242.29.28.187a.07.07 0 0 1 .035.076l-.08.369.336.035c.03.001.056.021.065.051l.1.365.313-.125a.07.07 0 0 1 .083.015l.257.276.22-.257a.07.07 0 0 1 .08-.025l.356.125.076-.33a.07.07 0 0 1 .059-.058l.373-.055-.086-.328a.07.07 0 0 1 .025-.079l.305-.222-.227-.25a.07.07 0 0 1-.016-.081l.167-.34-.319-.114a.07.07 0 0 1-.05-.066l-.01-.377-.336.046a.07.07 0 0 1-.075-.034l-.184-.33-.276.197a.07.07 0 0 1-.083.005z" class="color925f09 svgShape"></path></svg>